<?xml version="1.0" encoding="iso-8859-1"?>
<!-- Uploaded to: SVG Repo, www.svgrepo.com, Generator: SVG Repo Mixer Tools -->
<svg fill="#fff" height="800px" width="800px" version="1.1" id="Layer_1" xmlns="http://www.w3.org/2000/svg" xmlns:xlink="http://www.w3.org/1999/xlink" 
	 viewBox="0 0 203.25 203.25" xml:space="preserve">
<g>
	<g>
		<path d="M167.466,101.661c-1.882-25.887-24.296-46.392-51.577-46.392c-3.361,0-6.648,0.343-9.851,0.937
			c-4.673-25.417-26.518-43.727-52.551-43.727C23.994,12.479,0,36.473,0,65.966c0,18.944,9.989,36.339,26.188,45.971
			c-3.04,6.023-4.793,12.802-4.793,19.997c0,0.747,0.156,2.745,0.323,4.497c-8.712,5.081-14.587,14.435-14.587,25.144
			c0,16.375,13.868,29.674,30.346,29.183c0.096,0.009,0.193,0.012,0.291,0.012h63.166c0.221,0,0.439-0.021,0.651-0.061
			c9.305-0.648,17.116-6.305,20.85-14.207l45.328-0.046c19.899-1.024,35.487-17.448,35.487-37.39
			C203.251,118.974,187.346,102.529,167.466,101.661z M7.132,65.966c0-25.562,20.794-46.356,46.356-46.356
			c22.723,0,41.776,16.089,45.64,38.355c-14.322,4.708-26.005,15.312-31.56,29.424c-0.531-0.019-1.064-0.028-1.6-0.028
			c-14.833,0-27.96,7.311-36.067,18.489C15.818,97.51,7.132,82.411,7.132,65.966z M100.744,183.615
			c-0.089,0.004-0.176,0.012-0.261,0.022H38.191c-0.185-0.021-0.373-0.026-0.564-0.021c-0.327,0.014-0.656,0.021-0.987,0.021
			c-12.339,0-22.377-9.898-22.377-22.063c0-12.165,10.037-22.063,22.377-22.063c0.745,0,1.483,0.037,2.211,0.106
			c1.652,0.174,3.199-0.841,3.726-2.418c3.548-10.614,13.856-17.746,25.647-17.746c14.826,0,26.888,11.397,26.888,25.436
			c0,0.977,0.4,1.912,1.109,2.586c0.71,0.672,1.684,1.031,2.639,0.975c0.313-0.016,0.629-0.024,0.945-0.024
			c9.851,0,17.866,7.898,17.866,17.606C117.672,175.407,110.237,183.131,100.744,183.615z M167.577,169.329l-43.027,0.039
			c0.149-1.094,0.253-2.203,0.253-3.337c0-12.891-10.017-23.51-22.751-24.639c-1.814-16.317-16.293-29.071-33.828-29.071
			c-13.905,0-26.202,7.955-31.431,20.058c-0.052,0-0.103,0-0.153,0c-2.782,0-5.465,0.409-8.018,1.124
			c-0.06-0.797-0.094-1.385-0.095-1.57c0-20.645,16.796-37.441,37.441-37.441c1.245,0,2.478,0.061,3.691,0.179
			c1.649,0.183,3.211-0.844,3.735-2.43C79.289,74.393,96.366,62.4,115.889,62.4c24.578,0,44.573,19.196,44.573,42.79
			c0,1.933,1.539,3.514,3.472,3.564c0.434,0.014,0.865,0.009,1.309,0.005l0.568-0.004c16.713,0,30.309,13.596,30.309,30.309
			C196.119,155.208,183.503,168.504,167.577,169.329z"/>
	</g>
</g>
</svg>