<?xml version="1.0" encoding="iso-8859-1"?>
<!-- Uploaded to: SVG Repo, www.svgrepo.com, Generator: SVG Repo Mixer Tools -->
<svg fill="#fff" height="800px" width="800px" version="1.1" id="Layer_1" xmlns="http://www.w3.org/2000/svg" xmlns:xlink="http://www.w3.org/1999/xlink" 
	 viewBox="0 0 182.849 182.849" xml:space="preserve">
<g>
	<g>
		<g>
			<path d="M146.566,46.392C144.685,20.505,122.27,0,94.99,0C73.348,0,54.276,12.797,46.667,32.12
				c-0.529-0.019-1.062-0.028-1.598-0.028c-24.578,0-44.573,19.995-44.573,44.573s19.995,44.573,44.573,44.573
				c0.467,0,0.933-0.007,1.396-0.021c0.129,0.014,0.258,0.021,0.387,0.021h99.843c0.258,0,0.512-0.03,0.759-0.085
				c19.619-1.315,34.899-17.612,34.899-37.356C182.352,63.706,166.446,47.261,146.566,46.392z M146.496,114.066
				c-0.125,0.005-0.251,0.019-0.376,0.04H47.384c-0.219-0.033-0.449-0.042-0.679-0.035c-0.543,0.025-1.087,0.035-1.637,0.035
				c-20.646,0-37.441-16.796-37.441-37.441c0-20.645,16.795-37.441,37.441-37.441c1.243,0,2.476,0.061,3.691,0.179
				c1.637,0.167,3.211-0.843,3.733-2.43C58.389,19.124,75.469,7.132,94.99,7.132c24.578,0,44.573,19.196,44.573,42.835
				c0,0.977,0.4,1.91,1.107,2.584c0.707,0.674,1.672,1.048,2.636,0.977c0.533-0.026,1.065-0.04,1.605-0.04
				c16.711,0,30.309,13.596,30.309,30.309C175.221,99.94,162.605,113.235,146.496,114.066z"/>
			<path d="M52.987,129.849c-1.703-0.986-3.89-0.4-4.872,1.306l-8.228,14.253c-0.986,1.706-0.4,3.886,1.306,4.872
				c0.561,0.324,1.174,0.477,1.779,0.477c1.233,0,2.43-0.639,3.092-1.783l8.228-14.253
				C55.279,133.014,54.694,130.834,52.987,129.849z"/>
			<path d="M52.987,161.941c-1.703-0.987-3.89-0.402-4.872,1.306L39.887,177.5c-0.986,1.706-0.4,3.886,1.306,4.872
				c0.561,0.324,1.174,0.477,1.779,0.477c1.233,0,2.43-0.639,3.092-1.783l8.228-14.253
				C55.279,165.107,54.694,162.927,52.987,161.941z"/>
			<path d="M74.382,129.849c-1.706-0.986-3.886-0.4-4.872,1.306l-8.228,14.253c-0.986,1.706-0.4,3.886,1.306,4.872
				c0.561,0.324,1.174,0.477,1.779,0.477c1.233,0,2.43-0.639,3.092-1.783l8.228-14.253
				C76.674,133.014,76.088,130.834,74.382,129.849z"/>
			<path d="M74.382,161.941c-1.706-0.987-3.886-0.402-4.872,1.306L61.282,177.5c-0.986,1.706-0.4,3.886,1.306,4.872
				c0.561,0.324,1.174,0.477,1.779,0.477c1.233,0,2.43-0.639,3.092-1.783l8.228-14.253
				C76.674,165.107,76.088,162.927,74.382,161.941z"/>
			<path d="M95.777,129.849c-1.703-0.986-3.886-0.4-4.872,1.306l-8.228,14.253c-0.986,1.706-0.4,3.886,1.306,4.872
				c0.561,0.324,1.174,0.477,1.779,0.477c1.233,0,2.43-0.639,3.092-1.783l8.228-14.253
				C98.068,133.014,97.483,130.834,95.777,129.849z"/>
			<path d="M95.777,161.941c-1.703-0.987-3.886-0.402-4.872,1.306L82.677,177.5c-0.986,1.706-0.4,3.886,1.306,4.872
				c0.561,0.324,1.174,0.477,1.779,0.477c1.233,0,2.43-0.639,3.092-1.783l8.228-14.253
				C98.068,165.107,97.483,162.927,95.777,161.941z"/>
			<path d="M117.172,129.849c-1.706-0.986-3.886-0.4-4.872,1.306l-8.228,14.253c-0.986,1.706-0.4,3.886,1.306,4.872
				c0.561,0.324,1.174,0.477,1.779,0.477c1.233,0,2.43-0.639,3.092-1.783l8.228-14.253
				C119.463,133.014,118.878,130.834,117.172,129.849z"/>
			<path d="M117.172,161.941c-1.706-0.987-3.886-0.402-4.872,1.306l-8.228,14.253c-0.986,1.706-0.4,3.886,1.306,4.872
				c0.561,0.324,1.174,0.477,1.779,0.477c1.233,0,2.43-0.639,3.092-1.783l8.228-14.253
				C119.463,165.107,118.878,162.927,117.172,161.941z"/>
			<path d="M138.567,129.849c-1.703-0.986-3.886-0.4-4.872,1.306l-8.228,14.253c-0.986,1.706-0.4,3.886,1.306,4.872
				c0.561,0.324,1.174,0.477,1.779,0.477c1.233,0,2.43-0.639,3.092-1.783l8.228-14.253
				C140.858,133.014,140.273,130.834,138.567,129.849z"/>
			<path d="M138.567,161.941c-1.703-0.987-3.886-0.402-4.872,1.306l-8.228,14.253c-0.986,1.706-0.4,3.886,1.306,4.872
				c0.561,0.324,1.174,0.477,1.779,0.477c1.233,0,2.43-0.639,3.092-1.783l8.228-14.253
				C140.858,165.107,140.273,162.927,138.567,161.941z"/>
		</g>
	</g>
</g>
</svg>