<?xml version="1.0" encoding="iso-8859-1"?>
<!-- Uploaded to: SVG Repo, www.svgrepo.com, Generator: SVG Repo Mixer Tools -->
<svg fill="#fff" height="800px" width="800px" version="1.1" id="Layer_1" xmlns="http://www.w3.org/2000/svg" xmlns:xlink="http://www.w3.org/1999/xlink" 
	 viewBox="0 0 202.195 202.195" xml:space="preserve">
<g>
	<g>
		<g>
			<path d="M101.097,58.307c-23.596,0-42.79,19.194-42.79,42.79s19.194,42.79,42.79,42.79s42.79-19.194,42.79-42.79
				S124.693,58.307,101.097,58.307z M101.097,136.754c-19.661,0-35.658-15.997-35.658-35.658c0-19.661,15.997-35.658,35.658-35.658
				s35.658,15.997,35.658,35.658C136.755,120.757,120.758,136.754,101.097,136.754z"/>
			<path d="M158.415,94.344c0.411-0.582,0.62-1.247,0.641-1.908c0.745-2.26,0.825-4.631,0.213-6.923
				c-0.617-2.298-1.873-4.315-3.649-5.902c-0.352-0.557-0.864-1.027-1.504-1.327l-0.004-0.004c-4.043-1.887-7.135-7.243-6.749-11.69
				c0.063-0.71-0.091-1.393-0.404-1.982c-0.487-2.326-1.602-4.419-3.28-6.098c-1.678-1.679-3.768-2.789-6.094-3.277
				c-0.588-0.313-1.264-0.481-1.982-0.404c-0.004,0-0.004,0-0.004,0h-0.007c-4.416,0.362-9.796-2.709-11.679-6.745
				c-0.303-0.648-0.773-1.16-1.334-1.511c-1.588-1.776-3.597-3.033-5.892-3.646c-2.295-0.617-4.666-0.54-6.926,0.209
				c-0.665,0.021-1.327,0.23-1.912,0.637c-3.66,2.552-9.837,2.56-13.504,0c-0.585-0.408-1.247-0.617-1.908-0.637
				c-2.264-0.745-4.628-0.829-6.923-0.213c-2.298,0.617-4.315,1.873-5.902,3.649c-0.557,0.352-1.027,0.864-1.327,1.504l-0.004,0.004
				c-1.891,4.05-7.222,7.142-11.69,6.749c-0.704-0.063-1.393,0.091-1.982,0.404c-2.326,0.487-4.419,1.602-6.098,3.28
				c-1.678,1.678-2.789,3.768-3.277,6.094c-0.313,0.588-0.467,1.271-0.404,1.982c0,0.004,0,0.004,0,0.004v0.008
				c0.383,4.443-2.706,9.792-6.749,11.679l-0.004,0.004c-0.641,0.3-1.152,0.77-1.501,1.327c-1.779,1.588-3.037,3.601-3.65,5.899
				c-0.616,2.295-0.536,4.663,0.209,6.923c0.021,0.665,0.23,1.327,0.637,1.912c2.556,3.66,2.556,9.844,0,13.504
				c-0.408,0.585-0.617,1.247-0.637,1.908c-0.745,2.26-0.825,4.631-0.213,6.923c0.617,2.298,1.873,4.315,3.649,5.902
				c0.352,0.557,0.864,1.027,1.504,1.327l0.004,0.004c4.043,1.887,7.135,7.243,6.749,11.69c-0.063,0.71,0.091,1.393,0.404,1.982
				c0.487,2.326,1.602,4.419,3.28,6.098c1.678,1.678,3.768,2.789,6.094,3.277c0.585,0.313,1.247,0.467,1.982,0.404
				c0.004,0,0.004,0,0.004,0h0.007c4.391-0.373,9.792,2.702,11.679,6.745l0.004,0.007c0.3,0.641,0.77,1.152,1.327,1.504
				c1.588,1.776,3.601,3.033,5.899,3.646c2.288,0.613,4.659,0.533,6.923-0.209c0.665-0.021,1.327-0.23,1.912-0.637
				c3.667-2.563,9.848-2.56,13.501-0.004h0.004c0.582,0.411,1.247,0.62,1.908,0.641c1.254,0.414,2.538,0.62,3.824,0.62
				c1.038,0,2.079-0.132,3.103-0.408c2.295-0.617,4.307-1.873,5.892-3.649c0.564-0.352,1.034-0.864,1.337-1.508
				c1.891-4.046,7.219-7.107,11.69-6.749c0.71,0.07,1.393-0.091,1.982-0.404c2.326-0.487,4.419-1.602,6.098-3.28
				c1.678-1.678,2.789-3.768,3.277-6.094c0.313-0.588,0.467-1.271,0.404-1.982c0-0.004,0-0.004,0-0.004v-0.007
				c-0.383-4.443,2.706-9.792,6.745-11.679l0.007-0.004c0.641-0.3,1.152-0.77,1.504-1.327c1.776-1.588,3.033-3.601,3.646-5.899
				c0.617-2.295,0.536-4.663-0.209-6.923c-0.021-0.665-0.23-1.327-0.637-1.912c-2.56-3.663-2.56-9.844-0.004-13.501V94.344z
				 M150.775,108.569c0.059,0.588,0.265,1.17,0.627,1.686v0.004c1.027,1.469,1.372,3.096,0.975,4.579
				c-0.397,1.48-1.504,2.716-3.127,3.475c-0.004,0.004-0.007,0.004-0.01,0.004l-0.004,0.004c-0.568,0.265-1.031,0.661-1.375,1.135
				c-3.931,3.103-6.752,7.992-7.476,12.947c-0.244,0.54-0.359,1.146-0.303,1.776c0.153,1.79-0.359,3.374-1.445,4.457
				c-1.083,1.087-2.653,1.609-4.447,1.445h-0.007c0,0,0,0-0.004,0c-0.641-0.059-1.24,0.056-1.776,0.303
				c-4.952,0.724-9.837,3.545-12.94,7.473c-0.481,0.341-0.881,0.811-1.149,1.386l-0.004,0.01c-0.763,1.619-1.995,2.73-3.472,3.127
				c-1.491,0.39-3.11,0.045-4.579-0.978h-0.004c-0.515-0.362-1.097-0.568-1.682-0.627c-4.649-1.852-10.293-1.852-14.949,0
				c-0.588,0.059-1.17,0.265-1.686,0.627h-0.004c-1.469,1.024-3.089,1.375-4.579,0.975c-1.48-0.397-2.716-1.504-3.475-3.127
				c-0.004-0.004-0.004-0.007-0.004-0.01l-0.004-0.004c-0.265-0.568-0.661-1.031-1.135-1.372c-3.103-3.935-7.992-6.755-12.947-7.48
				c-0.536-0.247-1.132-0.359-1.776-0.303c-1.832,0.15-3.374-0.359-4.457-1.445c-1.087-1.083-1.598-2.66-1.445-4.447v-0.007
				c0,0,0,0,0-0.004c0.056-0.63-0.059-1.236-0.303-1.776c-0.724-4.955-3.545-9.841-7.476-12.944
				c-0.345-0.477-0.808-0.874-1.375-1.139l-0.024-0.01c-1.616-0.763-2.723-1.995-3.12-3.472c-0.397-1.483-0.049-3.11,0.978-4.579
				v-0.004c0.362-0.519,0.568-1.097,0.627-1.686c1.849-4.652,1.849-10.293,0-14.946c-0.059-0.588-0.265-1.17-0.627-1.686v-0.004
				c-1.027-1.469-1.372-3.096-0.975-4.579c0.397-1.48,1.504-2.716,3.127-3.475c0.004-0.004,0.007-0.004,0.01-0.004l0.004-0.004
				c0.568-0.265,1.031-0.661,1.375-1.139c3.928-3.103,6.752-7.988,7.476-12.944c0.244-0.54,0.359-1.146,0.303-1.776
				c-0.153-1.79,0.359-3.374,1.445-4.457c1.083-1.087,2.66-1.595,4.447-1.445h0.007c0,0,0,0,0.004,0
				c0.641,0.066,1.24-0.056,1.776-0.303c4.955-0.724,9.841-3.545,12.944-7.476c0.477-0.345,0.874-0.808,1.139-1.375l0.01-0.024
				c0.763-1.616,1.995-2.723,3.472-3.12c1.491-0.387,3.11-0.045,4.579,0.978h0.004c0.519,0.362,1.097,0.568,1.686,0.627
				c4.652,1.852,10.293,1.852,14.946,0c0.588-0.059,1.17-0.265,1.686-0.627h0.004c1.469-1.024,3.089-1.379,4.579-0.975
				c1.48,0.397,2.713,1.504,3.472,3.127l0.004,0.007c0.268,0.574,0.669,1.041,1.149,1.386c3.099,3.928,7.985,6.752,12.94,7.473
				c0.54,0.247,1.139,0.369,1.776,0.303c1.821-0.146,3.374,0.359,4.457,1.445c1.086,1.083,1.598,2.66,1.445,4.447v0.007
				c0,0,0,0,0,0.004c-0.056,0.63,0.059,1.236,0.303,1.776c0.724,4.955,3.545,9.841,7.476,12.944
				c0.345,0.477,0.808,0.874,1.375,1.139l0.024,0.01c1.616,0.763,2.723,1.995,3.12,3.472c0.397,1.483,0.049,3.11-0.978,4.579v0.004
				c-0.362,0.515-0.568,1.097-0.627,1.682C148.922,98.272,148.922,103.917,150.775,108.569z"/>
			<path d="M192.962,107.841c-2.552-3.656-2.552-9.834,0-13.49l6.794-9.723c2.26-3.231,2.981-6.961,2.03-10.51
				s-3.444-6.421-7.013-8.093l-10.746-5.018c-4.043-1.894-7.132-7.243-6.745-11.686l1.024-11.819
				c0.341-3.925-0.902-7.518-3.496-10.112c-2.598-2.601-6.209-3.858-10.119-3.503l-11.819,1.024
				c-4.489,0.348-9.799-2.709-11.683-6.745l-5.025-10.749c-1.668-3.569-4.544-6.059-8.089-7.01
				c-3.548-0.944-7.278-0.226-10.509,2.03l-9.723,6.794c-3.656,2.556-9.834,2.556-13.49,0L84.63,2.437
				c-3.231-2.256-6.958-2.97-10.51-2.03c-3.548,0.951-6.421,3.44-8.093,7.013l-5.021,10.743c-1.887,4.039-7.146,7.1-11.683,6.749
				l-11.819-1.024c-3.906-0.349-7.513,0.901-10.111,3.496c-2.598,2.598-3.841,6.191-3.503,10.119l1.024,11.819
				c0.383,4.447-2.706,9.796-6.745,11.683l-10.75,5.022c-3.569,1.668-6.059,4.541-7.006,8.089
				c-0.951,3.548-0.233,7.281,2.027,10.513l6.794,9.723c2.552,3.656,2.552,9.834,0,13.49l-6.795,9.722
				c-2.26,3.231-2.981,6.961-2.03,10.509c0.951,3.549,3.44,6.421,7.013,8.093l10.743,5.021c4.043,1.891,7.135,7.24,6.749,11.683
				l-1.024,11.819c-0.341,3.925,0.902,7.518,3.496,10.112c2.601,2.598,6.202,3.858,10.119,3.503l11.819-1.024
				c4.433-0.373,9.796,2.702,11.683,6.742l5.021,10.746c1.668,3.573,4.541,6.063,8.086,7.013c3.555,0.958,7.285,0.233,10.516-2.027
				l9.723-6.794c3.656-2.556,9.83-2.556,13.494,0h-0.004l9.723,6.794c2.302,1.609,4.858,2.438,7.417,2.438
				c1.034,0,2.072-0.136,3.092-0.408c3.548-0.951,6.421-3.444,8.093-7.013l5.018-10.746c1.894-4.039,7.163-7.149,11.686-6.745
				l11.819,1.024c3.903,0.352,7.515-0.902,10.112-3.496c2.598-2.598,3.841-6.191,3.503-10.119l-1.024-11.819
				c-0.383-4.447,2.706-9.796,6.742-11.683l10.749-5.021c3.573-1.672,6.063-4.544,7.01-8.093c0.951-3.548,0.23-7.281-2.027-10.51
				L192.962,107.841z M176.516,73.931l2.427-6.686c0.103-0.283,0.132-0.568,0.216-0.852c0.603,0.388,1.207,0.774,1.849,1.075
				l10.746,5.021c1.63,0.763,2.747,1.995,3.144,3.475c0.394,1.477,0.045,3.103-0.986,4.576l-6.794,9.723
				c-0.406,0.582-0.738,1.22-1.067,1.858c-0.215-0.205-0.384-0.438-0.615-0.633l-5.443-4.576
				C176.592,84.054,174.997,78.11,176.516,73.931z M153.484,32.016l11.819-1.024c1.804-0.157,3.378,0.359,4.461,1.442
				c1.083,1.083,1.591,2.664,1.438,4.457l-1.024,11.815c-0.061,0.706-0.03,1.425,0.005,2.142c-0.29-0.07-0.552-0.188-0.851-0.24
				l-6.999-1.24c-4.377-0.777-8.73-5.129-9.506-9.506l-1.24-6.999c-0.053-0.297-0.169-0.558-0.239-0.847
				C152.063,32.049,152.78,32.079,153.484,32.016z M111.931,15.074l9.723-6.794c1.473-1.024,3.092-1.382,4.576-0.982
				c1.48,0.394,2.713,1.511,3.475,3.138l5.021,10.746c0.3,0.642,0.687,1.249,1.075,1.852c-0.284,0.084-0.569,0.113-0.853,0.216
				l-6.686,2.427c-4.179,1.522-10.126-0.08-12.982-3.479l-4.576-5.443c-0.195-0.231-0.427-0.4-0.632-0.615
				C110.712,15.813,111.349,15.481,111.931,15.074z M67.469,21.182l5.021-10.743c0.759-1.63,1.995-2.747,3.475-3.144
				c1.487-0.39,3.11-0.038,4.576,0.986l9.723,6.794c0.582,0.407,1.22,0.738,1.858,1.067c-0.205,0.215-0.438,0.383-0.632,0.615
				L86.914,22.2c-2.859,3.399-8.814,5-12.982,3.479l-6.686-2.427c-0.283-0.103-0.568-0.132-0.853-0.216
				C66.782,22.431,67.168,21.825,67.469,21.182z M32.435,32.43c1.079-1.083,2.643-1.598,4.457-1.438l11.815,1.024
				c0.708,0.06,1.426,0.026,2.143-0.009c-0.07,0.291-0.188,0.555-0.241,0.855l-1.24,6.999c-0.777,4.377-5.129,8.73-9.506,9.506
				l-6.999,1.24c-0.299,0.053-0.562,0.17-0.852,0.24c0.035-0.716,0.066-1.433,0.005-2.138l-1.024-11.818
				C30.84,35.097,31.352,33.513,32.435,32.43z M8.282,80.54c-1.031-1.473-1.379-3.099-0.982-4.579
				c0.397-1.48,1.511-2.713,3.138-3.472l10.746-5.021c0.643-0.3,1.249-0.687,1.853-1.075c0.084,0.284,0.113,0.569,0.216,0.853
				l2.427,6.686c1.518,4.179-0.077,10.123-3.479,12.982l-5.443,4.576c-0.232,0.195-0.4,0.427-0.615,0.632
				c-0.328-0.639-0.66-1.276-1.067-1.858L8.282,80.54z M25.679,128.261l-2.427,6.686c-0.103,0.283-0.132,0.568-0.216,0.853
				c-0.604-0.388-1.21-0.775-1.852-1.075l-10.743-5.021c-1.63-0.759-2.747-1.995-3.144-3.475c-0.394-1.477-0.045-3.103,0.986-4.576
				l6.794-9.723c0.407-0.582,0.738-1.22,1.067-1.858c0.215,0.205,0.384,0.438,0.615,0.633l5.443,4.576
				C25.602,118.138,27.197,124.083,25.679,128.261z M48.711,170.177l-11.819,1.024c-1.804,0.143-3.378-0.359-4.461-1.442
				c-1.083-1.083-1.591-2.664-1.438-4.457l1.024-11.815c0.061-0.707,0.03-1.425-0.005-2.142c0.29,0.07,0.552,0.188,0.851,0.24
				l6.999,1.24c4.377,0.777,8.73,5.129,9.506,9.506l1.24,6.999c0.053,0.3,0.171,0.563,0.241,0.854
				C50.133,170.149,49.416,170.117,48.711,170.177z M90.264,187.118l-9.719,6.794c-1.477,1.031-3.103,1.386-4.586,0.982
				c-1.477-0.397-2.709-1.511-3.468-3.141l-5.021-10.75c-0.3-0.64-0.686-1.244-1.073-1.846c0.284-0.084,0.567-0.113,0.85-0.215
				l6.686-2.427c4.168-1.532,10.123,0.077,12.982,3.479l4.576,5.443c0.195,0.232,0.427,0.4,0.632,0.615
				C91.484,186.38,90.846,186.711,90.264,187.118z M134.725,181.006l-5.021,10.746c-0.763,1.63-1.995,2.747-3.475,3.144
				c-1.483,0.394-3.103,0.042-4.576-0.986l-9.723-6.794c-0.582-0.406-1.22-0.738-1.858-1.067c0.205-0.215,0.438-0.383,0.633-0.615
				l4.576-5.443c2.862-3.395,8.803-4.99,12.982-3.479l6.686,2.427c0.282,0.102,0.565,0.131,0.848,0.215
				C135.41,179.76,135.025,180.365,134.725,181.006z M169.76,169.762c-1.083,1.079-2.667,1.584-4.457,1.438l-11.815-1.024
				c-0.708-0.064-1.424-0.034-2.139-0.003c0.069-0.287,0.186-0.547,0.238-0.843l1.24-6.999c0.777-4.377,5.129-8.73,9.506-9.506
				l6.999-1.24c0.299-0.053,0.562-0.17,0.852-0.24c-0.035,0.716-0.066,1.433-0.005,2.138l1.024,11.819
				C171.355,167.095,170.843,168.679,169.76,169.762z M169.809,130.692l2.427,6.686c0.609,1.682,0.526,3.333-0.237,4.656
				c-0.763,1.32-2.152,2.218-3.914,2.532l-6.999,1.24c-7.278,1.288-13.988,8.002-15.28,15.28l-1.24,6.999
				c-0.313,1.762-1.212,3.155-2.535,3.917c-1.316,0.763-2.967,0.846-4.652,0.233l-6.686-2.427
				c-6.944-2.514-16.112-0.063-20.872,5.596l-4.576,5.443c-1.149,1.369-2.622,2.121-4.151,2.121c-1.522,0-2.995-0.752-4.144-2.121
				l-4.576-5.443c-3.493-4.154-9.364-6.585-14.987-6.585c-2.034,0-4.039,0.32-5.885,0.989l-6.686,2.427
				c-1.682,0.617-3.336,0.529-4.656-0.237c-1.32-0.763-2.218-2.152-2.532-3.914l-1.24-6.999c-1.288-7.278-8.002-13.988-15.28-15.28
				l-6.999-1.24c-1.762-0.313-3.155-1.212-3.917-2.535c-0.763-1.32-0.846-2.97-0.233-4.652l2.427-6.686
				c2.521-6.947,0.063-16.116-5.596-20.872l-5.442-4.575c-1.369-1.149-2.121-2.626-2.121-4.151c0-1.522,0.752-2.995,2.121-4.144
				l5.443-4.576c5.659-4.757,8.117-13.926,5.596-20.872l-2.427-6.686c-0.609-1.682-0.526-3.333,0.237-4.656
				c0.763-1.32,2.152-2.218,3.914-2.532l6.999-1.24c7.278-1.288,13.988-8.002,15.28-15.28l1.24-6.999
				c0.313-1.762,1.212-3.155,2.535-3.917c1.32-0.759,2.967-0.85,4.652-0.233l6.686,2.427c6.937,2.514,16.116,0.063,20.872-5.596
				l4.576-5.443c1.149-1.369,2.622-2.121,4.151-2.121c1.522,0,2.995,0.752,4.144,2.121l4.576,5.443
				c4.757,5.659,13.922,8.114,20.872,5.596l6.686-2.427c1.678-0.617,3.336-0.533,4.656,0.237c1.32,0.763,2.218,2.152,2.532,3.914
				l1.24,6.999c1.288,7.278,8.002,13.988,15.28,15.28l6.999,1.24c1.762,0.313,3.155,1.212,3.917,2.535
				c0.763,1.32,0.846,2.97,0.233,4.652l-2.427,6.686c-2.521,6.947-0.063,16.116,5.596,20.872l5.443,4.576
				c1.369,1.149,2.121,2.626,2.121,4.151c0,1.522-0.752,2.995-2.121,4.144l-5.443,4.576
				C169.746,114.576,167.288,123.745,169.809,130.692z M194.895,126.227c-0.394,1.48-1.511,2.713-3.141,3.475l-10.749,5.021
				c-0.64,0.3-1.244,0.685-1.846,1.073c-0.083-0.283-0.113-0.567-0.215-0.85l-2.427-6.686c-1.518-4.179,0.077-10.123,3.479-12.982
				l5.443-4.576c0.232-0.195,0.4-0.427,0.615-0.632c0.328,0.639,0.66,1.276,1.067,1.858l6.794,9.723
				C194.944,123.125,195.292,124.751,194.895,126.227z"/>
		</g>
	</g>
</g>
</svg>