<?xml version="1.0" encoding="iso-8859-1"?>
<!-- Uploaded to: SVG Repo, www.svgrepo.com, Generator: SVG Repo Mixer Tools -->
<svg fill="#fff" height="800px" width="800px" version="1.1" id="Layer_1" xmlns="http://www.w3.org/2000/svg" xmlns:xlink="http://www.w3.org/1999/xlink" 
	 viewBox="0 0 212 212" xml:space="preserve">
<g>
	<g>
		<g>
			<path d="M108.756,70.016c-1.971,0-3.566,1.597-3.566,3.566s1.595,3.566,3.566,3.566c30.477,0,55.27,24.793,55.27,55.27
				c0,1.969,1.595,3.566,3.566,3.566c1.971,0,3.566-1.597,3.566-3.566C171.157,98.009,143.164,70.016,108.756,70.016z"/>
			<path d="M210.831,159.928c-4.574-4.148-10.712-7.716-20.235-11.777c1.274-5.925,1.956-11.989,1.956-18.089
				c0-47.19-38.392-85.579-85.579-85.579c-47.187,0-85.579,38.39-85.579,85.579c0,6.115,0.686,12.196,1.967,18.136
				c-10.776,4.428-17.592,8.493-22.321,13.235c-1.389,1.395-1.386,3.653,0.007,5.042c0.696,0.695,1.605,1.041,2.518,1.041
				c0.916,0,1.828-0.35,2.525-1.048c5.868-5.887,16.245-10.313,24.626-13.513c0.124-0.047,0.208-0.145,0.324-0.205
				c20.371-7.721,47.17-11.992,75.934-11.992c29.804,0,57.568,4.548,78.183,12.808c0.177,0.071,0.365,0.065,0.548,0.106
				c0.19,0.127,0.347,0.29,0.566,0.382c9.667,4.019,15.579,7.356,19.768,11.155c0.682,0.62,1.539,0.925,2.396,0.925
				c0.972,0,1.936-0.394,2.639-1.17C212.398,163.506,212.29,161.251,210.831,159.928z M183.91,145.457
				c-20.956-7.644-48.073-11.829-76.937-11.829s-55.98,4.186-76.937,11.829c-1.003-5.051-1.511-10.214-1.511-15.395
				c0-43.256,35.191-78.448,78.448-78.448c43.257,0,78.448,35.191,78.448,78.448C185.421,135.243,184.913,140.407,183.91,145.457z"
				/>
		</g>
	</g>
</g>
</svg>